
        <svg xmlns="http://www.w3.org/2000/svg" xmlns:xlink="http://www.w3.org/1999/xlink" version="1.1" width="3168.4210526315787" 
        height="3168.4210526315787" viewBox="0 0 3168.4210526315787 3168.4210526315787">
			
			<g transform="scale(8.421052631578947) translate(10, 10)">
				<defs id="SvgjsDefs3089"></defs><g id="SvgjsG3090" featureKey="rootContainer" transform="matrix(3.502949957621975,0,0,3.502949957621975,0,0)" fill="#945b31"><path xmlns="http://www.w3.org/2000/svg" d="M101.7 50.8c0 6.7-3.8 12.6-6.2 18.5s-4.1 12.9-8.7 17.5-11.4 6.2-17.5 8.7-11.8 6.2-18.5 6.2-12.6-3.8-18.5-6.2-12.9-4.1-17.5-8.7-6.1-11.4-8.6-17.5S0 57.5 0 50.8s3.8-12.6 6.2-18.4 4.1-12.9 8.7-17.5 11.4-6.2 17.5-8.7S44.1 0 50.8 0s12.7 3.8 18.5 6.2 12.9 4.1 17.5 8.7 6.2 11.4 8.7 17.5 6.2 11.7 6.2 18.4z"></path></g><g id="SvgjsG3091" featureKey="symbolFeature-0" transform="matrix(1.078559840296254,0,0,1.078559840296254,137.00023300886994,59.00047907305911)" fill="#fffbf3"><path xmlns="http://www.w3.org/2000/svg" d="M19.806,89.011c-0.256,0-0.505-0.081-0.713-0.232c-0.26-0.189-0.434-0.476-0.484-0.792L6.419,10.115  c-0.103-0.66,0.349-1.28,1.01-1.384l55.684-8.718c0.319-0.047,0.644,0.03,0.901,0.219c0.258,0.189,0.433,0.473,0.482,0.792  l12.191,77.872c0.049,0.317-0.028,0.642-0.218,0.901c-0.189,0.258-0.476,0.433-0.793,0.482l-55.686,8.717  C19.931,89.006,19.868,89.011,19.806,89.011z M9,10.937l11.814,75.479l53.293-8.343L62.291,2.594L9,10.937z"></path><path xmlns="http://www.w3.org/2000/svg" d="M26.413,99.417c-0.581,0-1.093-0.419-1.193-1.011c-0.111-0.657,0.333-1.284,0.992-1.396l45.654-7.726l-2.24-9.182  c-0.158-0.648,0.239-1.304,0.89-1.462c0.644-0.161,1.303,0.241,1.462,0.889l2.55,10.446c0.08,0.326,0.021,0.672-0.163,0.95  c-0.185,0.282-0.479,0.474-0.812,0.53L26.617,99.4C26.548,99.412,26.48,99.417,26.413,99.417z"></path><path xmlns="http://www.w3.org/2000/svg" d="M12.533,94.959c-0.587,0-1.103-0.426-1.196-1.024l-11.179-71.4c-0.103-0.66,0.349-1.28,1.01-1.384  c0.669-0.098,1.281,0.35,1.384,1.01l11.179,71.401c0.103,0.66-0.349,1.279-1.01,1.384C12.658,94.955,12.595,94.959,12.533,94.959z"></path><path xmlns="http://www.w3.org/2000/svg" d="M1.354,23.559c-0.586,0-1.102-0.427-1.196-1.024C-1.204,13.83,6.666,9.083,7.001,8.885C7.576,8.547,8.318,8.74,8.657,9.312  c0.341,0.575,0.15,1.316-0.423,1.658c-0.278,0.166-6.788,4.129-5.682,11.191c0.103,0.66-0.349,1.28-1.01,1.384  C1.479,23.554,1.416,23.559,1.354,23.559z"></path><path xmlns="http://www.w3.org/2000/svg" d="M21.206,100c-2.246,0-4.769-0.348-6.727-1.566c-1.646-1.021-2.698-2.512-3.126-4.425c-0.281-1.259-0.052-2.479,0.663-3.534  c1.968-2.897,7.029-3.78,7.6-3.872c0.654-0.098,1.279,0.345,1.386,1.005c0.105,0.66-0.344,1.28-1.004,1.389  c-1.266,0.203-4.808,1.111-5.979,2.841c-0.343,0.509-0.44,1.029-0.303,1.642c0.285,1.275,0.953,2.224,2.041,2.9  c3.009,1.871,8.507,1.106,10.371,0.647c0.645-0.148,1.305,0.241,1.463,0.892c0.158,0.651-0.241,1.306-0.891,1.465  C26.523,99.425,24.094,100,21.206,100z"></path><path xmlns="http://www.w3.org/2000/svg" d="M22.456,95.052c-1.265,0-3.118-0.236-4.527-1.415c-1.271-1.062-1.915-2.618-1.915-4.629c0-0.669,0.542-1.211,1.211-1.211  s1.211,0.542,1.211,1.211c0,1.272,0.339,2.176,1.038,2.766c1.443,1.213,3.988,0.787,4.016,0.782l42.091-6.606  c-0.014-0.045-0.028-0.09-0.043-0.135c-0.735-2.47,0.996-5.743,1.197-6.109c0.319-0.587,1.055-0.802,1.642-0.48  c0.587,0.319,0.802,1.055,0.482,1.642c-0.565,1.043-1.339,3.122-1,4.26c0.09,0.299,0.246,0.492,0.508,0.632  c0.459,0.246,0.712,0.757,0.625,1.271c-0.088,0.513-0.492,0.915-1.008,0.995l-44.095,6.922  C23.842,94.953,23.271,95.052,22.456,95.052z"></path><path xmlns="http://www.w3.org/2000/svg" d="M2.948,33.734c-0.094,0-0.191-0.011-0.287-0.035c-0.65-0.158-1.049-0.813-0.891-1.463c1.342-5.511,6.231-6.544,8.642-6.34  c0.667,0.061,1.158,0.649,1.097,1.315c-0.06,0.665-0.621,1.172-1.31,1.098l0,0c-0.201-0.022-4.897-0.337-6.076,4.5  C3.989,33.362,3.494,33.734,2.948,33.734z"></path><path xmlns="http://www.w3.org/2000/svg" d="M4.827,45.716c-0.028,0-0.056-0.001-0.084-0.002c-0.667-0.046-1.171-0.625-1.126-1.292c0.349-5.089,5.74-6.43,8.562-6.43  c0.595-0.031,1.229,0.536,1.229,1.211c0,0.668-0.543,1.21-1.21,1.211c-0.24,0-5.883,0.058-6.164,4.174  C5.99,45.226,5.458,45.716,4.827,45.716z"></path><path xmlns="http://www.w3.org/2000/svg" d="M25.474,40.292c-0.589,0-1.104-0.43-1.196-1.029l-2.11-13.885c-0.048-0.318,0.031-0.641,0.221-0.9  c0.19-0.259,0.477-0.432,0.793-0.479l30.736-4.665c0.652-0.101,1.279,0.354,1.379,1.015l2.107,13.886  c0.05,0.318-0.03,0.642-0.223,0.9c-0.188,0.259-0.475,0.432-0.792,0.479l-30.734,4.664C25.596,40.287,25.535,40.292,25.474,40.292z   M24.745,26.212l1.747,11.49l28.338-4.3L53.086,21.91L24.745,26.212z"></path></g><g id="SvgjsG3092" featureKey="nameFeature-0" transform="matrix(0.961168772779928,0,0,0.961168772779928,74.88581156290316,179.27412841831375)" fill="#fffbf3"><path d="M12.04 30.4 c-0.2 0 -0.36 -0.16 -0.36 -0.36 l0 -4.28 c0 -0.2 0.16 -0.36 0.36 -0.36 l9.16 0 c0.2 0 0.36 0.16 0.36 0.36 l0 6.28 c0 5.88 -3.16 8.36 -9.12 8.36 c-5.56 0 -9.2 -2.2 -9.2 -8.36 l0 -10.52 c0 -5.8 3.24 -8.28 9.2 -8.28 c5.6 0 9.12 2.16 9.12 8.28 l0 0.84 c0 0.2 -0.16 0.36 -0.36 0.36 l-4.6 0 c-0.2 0 -0.36 -0.16 -0.36 -0.36 l0 -0.52 c0 -2.44 -1.56 -3.24 -3.6 -3.24 l-0.48 0 c-1.32 0 -2.2 0.36 -2.8 1.16 c-0.56 0.76 -0.76 1.76 -0.76 3.08 l0 7.92 c0 3.48 1.88 4.24 3.56 4.24 l0.48 0 c2.44 0 3.6 -1.68 3.6 -4.24 l0 -0.36 l-4.2 0 z M5.68 31.759999999999998 c0 4.44 2.16 6.08 6.72 6.08 c4.8 0 6.76 -2 6.76 -6.92 l0 -3 c0 -0.12 -0.08 -0.28 -0.16 -0.28 l-5.56 0 c-0.36 0 -0.28 0.52 0 0.52 l5.24 0 l0 2.76 c0 4.28 -1.64 6.48 -6.28 6.48 c-3.84 0 -6.24 -1.36 -6.24 -5.64 l0 -9.64 c0 -4.12 1.88 -5.96 6.24 -5.96 c3.24 0 6.2 1.8 5.96 4.56 c0 0.32 0.44 0.4 0.52 0.04 c0 -3.52 -3.2 -5.04 -6.48 -5.04 c-4 0 -6.72 1.44 -6.72 6.4 l0 9.64 z M37.04 13.239999999999998 c3.44 0 5.84 0.76 7.36 2.4 c1.2 1.32 1.76 3.2 1.76 5.88 l0 10.52 c0 2.76 -0.56 4.68 -1.76 5.96 c-1.56 1.6 -3.92 2.4 -7.36 2.4 c-3.56 0 -5.88 -0.8 -7.4 -2.4 c-1.16 -1.28 -1.8 -3.2 -1.8 -5.96 l0 -10.52 c0 -2.68 0.64 -4.56 1.8 -5.92 c1.56 -1.6 3.92 -2.36 7.4 -2.36 z M40.84 30.84 l0 -8 c0 -3.52 -1.88 -4.24 -3.6 -4.24 l-0.48 0 c-2.56 0 -3.56 1.64 -3.56 4.24 l0 8 c0 3.52 1.88 4.28 3.56 4.28 l0.48 0 c2.56 0 3.56 -1.72 3.6 -4.28 z M30.36 21.8 l0 9.92 c0 1.88 0.48 3.44 1.6 4.6 c1.04 1.04 2.64 1.6 4.6 1.6 l1.04 0 c3.76 0 6.2 -2.4 6.2 -6.2 l0 -9.92 c0 -4.08 -2.16 -6.28 -6.2 -6.28 l-1.04 0 c-4.08 0 -6.2 2.2 -6.2 6.28 z M37.6 37.4 l-1.04 0 c-1.88 0 -3.28 -0.48 -4.28 -1.48 s-1.52 -2.4 -1.52 -4.2 l0 -9.92 c0 -3.8 2.04 -5.8 5.8 -5.8 l1.04 0 c3.8 0 5.68 1.96 5.68 5.8 l0 9.92 c0 1.68 -0.52 3.2 -1.6 4.24 c-1.04 0.88 -2.44 1.44 -4.08 1.44 z M61.84 13.239999999999998 c3.44 0 5.84 0.76 7.36 2.4 c1.2 1.32 1.76 3.2 1.76 5.88 l0 10.52 c0 2.76 -0.56 4.68 -1.76 5.96 c-1.56 1.6 -3.92 2.4 -7.36 2.4 c-3.56 0 -5.88 -0.8 -7.4 -2.4 c-1.16 -1.28 -1.8 -3.2 -1.8 -5.96 l0 -10.52 c0 -2.68 0.64 -4.56 1.8 -5.92 c1.56 -1.6 3.92 -2.36 7.4 -2.36 z M65.64 30.84 l0 -8 c0 -3.52 -1.88 -4.24 -3.6 -4.24 l-0.48 0 c-2.56 0 -3.56 1.64 -3.56 4.24 l0 8 c0 3.52 1.88 4.28 3.56 4.28 l0.48 0 c2.56 0 3.56 -1.72 3.6 -4.28 z M55.160000000000004 21.8 l0 9.92 c0 1.88 0.48 3.44 1.6 4.6 c1.04 1.04 2.64 1.6 4.6 1.6 l1.04 0 c3.76 0 6.2 -2.4 6.2 -6.2 l0 -9.92 c0 -4.08 -2.16 -6.28 -6.2 -6.28 l-1.04 0 c-4.08 0 -6.2 2.2 -6.2 6.28 z M62.400000000000006 37.4 l-1.04 0 c-1.88 0 -3.28 -0.48 -4.28 -1.48 s-1.52 -2.4 -1.52 -4.2 l0 -9.92 c0 -3.8 2.04 -5.8 5.8 -5.8 l1.04 0 c3.8 0 5.68 1.96 5.68 5.8 l0 9.92 c0 1.68 -0.52 3.2 -1.6 4.24 c-1.04 0.88 -2.44 1.44 -4.08 1.44 z M88.28 13.600000000000001 c2.72 0 4.76 0.76 6.12 2.24 c1.2 1.32 1.8 3.28 1.8 5.68 l0 10.6 c0 4.84 -2.8 7.88 -7.92 7.88 l-10 0 c-0.2 0 -0.32 -0.16 -0.32 -0.36 l0 -25.68 c0 -0.2 0.12 -0.36 0.32 -0.36 l10 0 z M90.96000000000001 30.92 l0 -8.2 c0 -2.52 -1.32 -4.12 -4.12 -4.12 l-3.6 0 l0 16.4 l3.6 0 c2.4 0 4.12 -1.56 4.12 -4.08 z M80.4 16.04 l0 21.52 c0 0.16 0.16 0.2 0.24 0.2 l6.52 0 c4.6 0 6.68 -2.76 6.68 -5.32 l0 -10.24 c0 -4.24 -2.24 -6.4 -6.8 -6.4 l-6.4 0 c-0.08 0 -0.24 0.04 -0.24 0.24 z M93.36 22.2 l0 10.24 c0 3.2 -3.2 4.88 -6.2 4.88 l-6.28 0 l0 -21 l6.16 0 c4.2 0 6.32 1.88 6.32 5.88 z M118.2 29.560000000000002 c-0.56 1.16 -1.36 2.04 -2.48 2.56 l3.36 7.4 c0.12 0.24 -0.04 0.48 -0.28 0.48 l-4.92 0 c-0.16 0 -0.24 -0.08 -0.28 -0.2 l-3.12 -6.8 l-2.04 0 l0 6.64 c0 0.2 -0.16 0.36 -0.36 0.36 l-4.6 0 c-0.16 0 -0.28 -0.16 -0.28 -0.36 l0 -25.68 c0 -0.2 0.12 -0.36 0.28 -0.36 l8.32 0 c4.44 0 7.12 2.52 7.12 7.2 l0 5.04 c0 1.4 -0.24 2.72 -0.72 3.72 z M113.67999999999999 24.6 l0 -2.6 c0 -2.8 -1.04 -3.08 -4.08 -3.08 l-1.16 0 l0 8.84 l1.16 0 c2.52 0 4 -0.04 4.08 -3.16 z M106.12 37.56 l0 -6.84 l5.76 0 l3.36 6.92 c0.08 0.2 0.56 0.12 0.44 -0.24 l-3.36 -6.8 c3.12 -0.44 4.2 -2.08 4.2 -5.04 l0 -5 c0 -4.4 -4 -4.76 -5.24 -4.76 l-5.4 0 c-0.08 0 -0.24 0.12 -0.24 0.24 l0 21.52 c0 0.28 0.48 0.28 0.48 0 z M116.03999999999999 20.56 l0 5 c0 4.08 -2.6 4.64 -5.12 4.64 l-4.8 0 l0 -13.88 l5.16 0 c4.32 0 4.76 2.92 4.76 4.24 z M126.32 40 c-0.2 0 -0.32 -0.16 -0.32 -0.36 l0 -25.68 c0 -0.2 0.12 -0.36 0.32 -0.36 l13.6 0 c0.2 0 0.36 0.16 0.36 0.36 l0 4.28 c0 0.2 -0.16 0.36 -0.36 0.36 l-8.64 0 l0 5.44 l6.72 0 c0.2 0 0.32 0.16 0.32 0.36 l0 4.36 c0 0.2 -0.12 0.36 -0.32 0.36 l-6.72 0 l0 5.88 l8.64 0 c0.2 0 0.36 0.16 0.36 0.36 l0 4.28 c0 0.2 -0.16 0.36 -0.36 0.36 l-13.6 0 z M128.32 16.12 l0 21.28 c0 0.24 0.16 0.32 0.32 0.32 l9.2 0 c0.36 0 0.28 -0.48 0 -0.48 l-9 0 l0 -10.44 l7.36 0 c0.24 0 0.24 -0.56 0 -0.56 l-7.36 0 l0 -9.92 l9 0 c0.28 0 0.36 -0.52 0 -0.52 l-9.2 0 c-0.16 0 -0.32 0.12 -0.32 0.32 z M152.04 13.84 c0.04 -0.12 0.12 -0.24 0.28 -0.24 l4.96 0 c0.16 0 0.24 0.12 0.28 0.24 l6.92 25.72 c0.04 0.24 -0.12 0.44 -0.36 0.44 l-4.56 0 c-0.12 0 -0.24 -0.08 -0.28 -0.24 l-1.56 -5.6 l-5.84 0 l-1.52 5.6 c-0.04 0.16 -0.12 0.24 -0.28 0.24 l-4.6 0 c-0.24 0 -0.4 -0.2 -0.36 -0.44 z M153.16 29.2 l3.32 0 l-1.72 -6.04 z M159.32 31.560000000000002 l1.84 6 c0.08 0.24 0.52 0.2 0.4 -0.12 l-6.4 -21.28 c-0.12 -0.52 -0.8 -0.56 -0.92 0 l-6.2 21.28 c-0.12 0.28 0.32 0.4 0.44 0.16 l1.76 -6.04 l9.08 0 z M150.36 31.04 l4.36 -14.72 l4.44 14.72 l-8.8 0 z M180.4 13.600000000000001 c2.72 0 4.76 0.76 6.12 2.24 c1.2 1.32 1.8 3.28 1.8 5.68 l0 10.6 c0 4.84 -2.8 7.88 -7.92 7.88 l-10 0 c-0.2 0 -0.32 -0.16 -0.32 -0.36 l0 -25.68 c0 -0.2 0.12 -0.36 0.32 -0.36 l10 0 z M183.07999999999998 30.92 l0 -8.2 c0 -2.52 -1.32 -4.12 -4.12 -4.12 l-3.6 0 l0 16.4 l3.6 0 c2.4 0 4.12 -1.56 4.12 -4.08 z M172.51999999999998 16.04 l0 21.52 c0 0.16 0.16 0.2 0.24 0.2 l6.52 0 c4.6 0 6.68 -2.76 6.68 -5.32 l0 -10.24 c0 -4.24 -2.24 -6.4 -6.8 -6.4 l-6.4 0 c-0.08 0 -0.24 0.04 -0.24 0.24 z M185.48 22.2 l0 10.24 c0 3.2 -3.2 4.88 -6.2 4.88 l-6.28 0 l0 -21 l6.16 0 c4.2 0 6.32 1.88 6.32 5.88 z M204.32 23.8 c3.04 1.44 7 3.72 7 7.84 c0 1.2 -0.2 3.52 -1.52 5.48 c-1.48 2.2 -3.8 3.28 -7 3.28 c-3.4 0 -7.36 -1.64 -8.6 -5.36 c-0.04 -0.12 0 -0.24 0.12 -0.32 l3.68 -3.16 c0.16 -0.12 0.4 -0.12 0.52 0.08 c0.08 0.2 0.24 0.52 0.44 0.92 c0.6 1.24 2.04 2.48 3.64 2.48 c1.24 0 2.92 -0.68 2.92 -2.6 c0 -1.84 -2.52 -2.88 -4.08 -3.48 c-1.8 -0.72 -3.64 -1.64 -5.2 -3 c-1.64 -1.52 -2.44 -3.2 -2.44 -5.2 c0 -5 4.6 -7.52 8.96 -7.52 c3.44 0 6 1.8 7.68 5.36 c0.08 0.16 0 0.36 -0.12 0.44 l-3.56 2.48 c-0.16 0.08 -0.24 0.08 -0.4 -0.12 c-1.36 -1.96 -2.56 -2.88 -4.16 -2.88 c-0.84 0 -2.8 0.32 -2.8 1.8 c0 1.8 3.32 2.72 4.92 3.48 z M197.04 34.84 c1 2 3.76 3.16 6 3.16 c2.92 0 5.28 -2 5.6 -5.04 c0.4 -3.72 -2.52 -5.32 -5.4 -6.76 l-1.28 -0.56 c-2.96 -1.32 -5.12 -2.32 -5.12 -5.08 c0 -3.04 2.8 -4.44 5.56 -4.44 c2.52 0 3.84 1.48 4.52 2.4 c0.24 0.32 0.64 0.04 0.4 -0.28 c-0.68 -0.84 -2.12 -2.6 -4.92 -2.6 c-3.16 0 -6.04 1.56 -6.04 4.92 c0 3 2.4 4.16 5.44 5.56 l1.24 0.6 c3.96 1.88 5.4 3.64 5.08 6.2 c-0.6 4.08 -3.72 4.6 -5.08 4.6 c-3 0 -5 -1.8 -5.6 -2.92 c-0.2 -0.2 -0.48 0 -0.4 0.24 z"></path></g><g id="SvgjsG3093" featureKey="sloganFeature-0" transform="matrix(3.493522409430207,0,0,3.493522409430207,106.00000083292065,221.02147562620974)" fill="#fffbf3"><path d="M6.62 18.92 c-0.78666 0.72 -1.8534 1.0801 -3.2 1.0801 l-3.42 0 l0 -15 l2.92 0 c0.8 0 1.4667 0.10334 2 0.31 s0.96 0.48666 1.28 0.84 s0.54334 0.76334 0.67 1.23 s0.19 0.95332 0.19 1.46 c0 0.54666 -0.16334 1.0633 -0.49 1.55 s-0.76332 0.94332 -1.31 1.37 c0.21334 0.13334 0.38 0.23668 0.5 0.31002 s0.23334 0.14334 0.34 0.21 c0.17334 0.14666 0.36668 0.32332 0.58002 0.52998 s0.41 0.44666 0.59 0.72 s0.33 0.58334 0.45 0.93 s0.18 0.73332 0.18 1.16 c0 0.74666 -0.11 1.3867 -0.33 1.92 s-0.53666 0.99334 -0.95 1.38 z M3.4 6 l-2.36 0.000039062 l0 5.4 l2.56 0 c0.36 0 0.69 -0.06666 0.99 -0.2 s0.56 -0.31668 0.78 -0.55002 s0.39334 -0.50334 0.52 -0.81 s0.19 -0.64 0.19 -1 c0 -0.25334 -0.03666 -0.54668 -0.11 -0.88002 s-0.21 -0.64334 -0.41 -0.93 s-0.47334 -0.53 -0.82 -0.73 s-0.79332 -0.3 -1.34 -0.3 z M3.52 12.4002 l-2.48 0.000039062 l0 6.54 l2.14 0 c0.44 0 0.88 -0.05334 1.32 -0.16 s0.84 -0.28666 1.2 -0.54 s0.65 -0.58668 0.87 -1 s0.33 -0.92668 0.33 -1.54 c0 -0.56 -0.08666 -1.05 -0.26 -1.47 s-0.41334 -0.76334 -0.72 -1.03 s-0.66666 -0.46666 -1.08 -0.6 s-0.85334 -0.2 -1.32 -0.2 z M14.7385 20.18 c-2.52 0 -3.78 -1.32 -3.78 -3.96 l0 -7.4 c0 -1.3333 0.31666 -2.3266 0.95 -2.98 s1.6567 -0.98 3.07 -0.98 c1.2933 0 2.25 0.33 2.87 0.99 s0.93 1.6367 0.93 2.93 l0 7.44 c0 0.66666 -0.07 1.2467 -0.21 1.74 s-0.37 0.90668 -0.69 1.24 s-0.73666 0.58 -1.25 0.74 s-1.1433 0.24 -1.89 0.24 z M17.7185 8.76 c0 -0.33334 -0.04664 -0.67338 -0.13998 -1.02 s-0.24668 -0.66332 -0.46002 -0.94998 s-0.49668 -0.52 -0.85002 -0.7 s-0.79 -0.27 -1.31 -0.27 c-0.57334 0 -1.05 0.08 -1.43 0.24 s-0.68 0.38334 -0.9 0.67 s-0.37666 0.62332 -0.47 1.01 s-0.14 0.80666 -0.14 1.26 l0 7.1 c0 0.34666 0.04 0.7 0.12 1.06 s0.22334 0.69 0.43 0.99 s0.48666 0.54666 0.84 0.74 s0.79668 0.29 1.33 0.29 c0.57334 0 1.05 -0.07666 1.43 -0.23 s0.68334 -0.36334 0.91 -0.63 s0.39 -0.58332 0.49 -0.94998 s0.15 -0.76332 0.15 -1.19 l0 -7.42 z M26.057000000000002 20.18 c-2.52 0 -3.78 -1.32 -3.78 -3.96 l0 -7.4 c0 -1.3333 0.31666 -2.3266 0.95 -2.98 s1.6567 -0.98 3.07 -0.98 c1.2933 0 2.25 0.33 2.87 0.99 s0.93 1.6367 0.93 2.93 l0 7.44 c0 0.66666 -0.07 1.2467 -0.21 1.74 s-0.37 0.90668 -0.69 1.24 s-0.73666 0.58 -1.25 0.74 s-1.1433 0.24 -1.89 0.24 z M29.037 8.76 c0 -0.33334 -0.04664 -0.67338 -0.13998 -1.02 s-0.24668 -0.66332 -0.46002 -0.94998 s-0.49668 -0.52 -0.85002 -0.7 s-0.79 -0.27 -1.31 -0.27 c-0.57334 0 -1.05 0.08 -1.43 0.24 s-0.68 0.38334 -0.9 0.67 s-0.37666 0.62332 -0.47 1.01 s-0.14 0.80666 -0.14 1.26 l0 7.1 c0 0.34666 0.04 0.7 0.12 1.06 s0.22334 0.69 0.43 0.99 s0.48666 0.54666 0.84 0.74 s0.79668 0.29 1.33 0.29 c0.57334 0 1.05 -0.07666 1.43 -0.23 s0.68334 -0.36334 0.91 -0.63 s0.39 -0.58332 0.49 -0.94998 s0.15 -0.76332 0.15 -1.19 l0 -7.42 z M40.47550000000001 20 l-3.52 -8.14 l-2.04 3.06 l0 5.08 l-1 0 l0 -15 l1 0 l0 7.9 l5.08 -7.9 l1.24 0 l-3.52 6.1 l3.92 8.9 l-1.16 0 z"></path></g>
			</g>
		</svg>
	